<svg version="1.1" id="Layer_1" xmlns="http://www.w3.org/2000/svg" xmlns:xlink="http://www.w3.org/1999/xlink" x="0px" y="0px"
	 width="100%" viewBox="0 0 500 500" enable-background="new 0 0 500 500" xml:space="preserve">
<path fill="#FFFFFF" opacity="1.000000" stroke="none" 
	d="
M277.000000,501.000000 
	C184.666687,501.000000 92.833374,501.000000 1.000049,501.000000 
	C1.000033,334.333405 1.000033,167.666794 1.000016,1.000139 
	C167.666565,1.000093 334.333130,1.000093 500.999756,1.000046 
	C500.999847,167.666519 500.999847,334.333038 500.999939,500.999786 
	C426.500000,501.000000 352.000000,501.000000 277.000000,501.000000 
M52.223530,208.224319 
	C46.035336,209.326111 40.449139,211.519730 35.768490,216.759171 
	C43.381592,215.809174 50.191177,214.959442 57.734684,214.481384 
	C60.463894,215.390152 63.193104,216.298920 66.209633,217.753998 
	C67.332291,218.234772 68.454956,218.715561 69.911469,219.791595 
	C73.068817,223.559052 76.226166,227.326508 79.500275,231.921906 
	C80.189102,237.226334 80.877930,242.530746 81.171928,248.375290 
	C79.803139,251.702393 78.434341,255.029495 76.483955,258.624390 
	C75.325302,259.182251 74.166641,259.740082 72.144981,260.205841 
	C68.017937,260.526794 63.799854,260.441589 59.801769,261.337799 
	C57.764896,261.794403 55.194714,263.718842 54.615749,265.537048 
	C54.200493,266.841125 56.420990,269.355499 57.965431,270.792877 
	C59.158604,271.903351 61.127293,272.180511 62.749138,272.827332 
	C59.965302,279.629913 60.275509,280.060120 70.726761,284.262604 
	C68.495071,288.770874 69.848923,291.506500 75.584343,292.584900 
	C77.370926,292.800842 79.157509,293.016754 80.964455,293.235168 
	C79.518875,299.740051 82.094383,302.427856 88.569267,301.259796 
	C90.153526,300.974030 91.644707,300.172272 93.909164,299.407471 
	C96.933525,297.575562 99.957886,295.743622 103.628349,293.738037 
	C107.981804,288.896790 112.335258,284.055511 117.263268,278.947754 
	C119.750656,272.604401 122.238045,266.261047 125.090607,259.650269 
	C125.066307,259.098694 125.042015,258.547089 125.219368,257.271515 
	C125.334091,255.797424 125.448807,254.323318 126.086960,252.301132 
	C125.914299,248.505493 126.159081,244.634583 125.490959,240.928268 
	C123.460960,229.667053 119.850189,219.074905 110.612686,210.573441 
	C109.476898,209.568726 108.341118,208.564026 106.947701,206.979736 
	C97.659676,199.046021 87.067451,195.525803 74.408249,197.410446 
	C74.092552,197.470261 73.841911,197.631393 72.930397,197.836868 
	C70.951607,198.651352 68.972824,199.465836 66.336433,200.322937 
	C64.894409,201.374573 63.250046,202.236954 62.052418,203.517212 
	C59.547073,206.195450 57.007015,208.594086 52.223530,208.224319 
M462.327179,267.839294 
	C462.991669,269.538696 463.710175,271.219269 464.311157,272.940826 
	C466.701141,279.786438 467.672424,280.272247 475.314240,278.100647 
	C469.363464,261.494995 463.242462,244.965530 457.592224,228.276688 
	C456.098907,223.865891 453.167725,224.793854 450.140656,224.584137 
	C447.043152,224.369568 445.062714,224.868774 443.848450,228.433075 
	C438.590454,243.867569 432.928680,259.164368 427.444702,274.522308 
	C426.979980,275.823761 426.743988,277.206879 426.387726,278.607147 
	C434.724731,279.431580 434.723663,279.431183 437.377838,272.203674 
	C437.664673,271.422577 437.768250,270.432983 438.313538,269.917023 
	C439.484406,268.809143 440.864685,267.158569 442.200623,267.118744 
	C448.674744,266.925812 455.162567,267.192230 462.327179,267.839294 
M302.999390,279.673859 
	C311.357086,278.641388 317.864075,274.641815 319.554413,266.181702 
	C320.689606,260.500000 320.740997,254.175888 319.486755,248.537506 
	C317.344452,238.907242 309.674408,235.054047 300.000244,237.511627 
	C297.333344,238.189102 294.746857,239.183258 291.481598,240.239807 
	C291.481598,233.756195 291.481598,227.845963 291.481598,221.747849 
	C288.555878,221.747849 286.163055,221.747849 283.200745,221.747849 
	C283.200745,223.663116 283.200714,225.276398 283.200745,226.889679 
	C283.200989,238.524307 283.201355,250.158920 283.201447,261.793549 
	C283.201569,280.260590 283.313141,280.366760 302.999390,279.673859 
M396.617218,230.607117 
	C396.510345,232.835724 396.403442,235.064331 396.309906,237.015152 
	C392.265472,237.015152 388.942596,236.872757 385.635834,237.043030 
	C377.175201,237.478622 370.579376,241.772034 369.090698,249.615936 
	C367.919952,255.784760 367.897339,262.557861 369.140106,268.703522 
	C370.807343,276.948029 377.775696,280.823395 386.177368,279.600769 
	C388.940186,279.198730 391.587921,278.053101 394.324738,277.400299 
	C395.294250,277.169067 396.415649,277.210327 397.391876,277.444000 
	C399.708832,277.998627 401.980438,278.742645 404.557739,279.493896 
	C404.557739,259.505829 404.557739,240.671204 404.557739,221.848236 
	C401.784851,221.848236 399.401794,221.848236 396.617279,221.848236 
	C396.617279,224.710495 396.617279,227.177109 396.617218,230.607117 
M192.055237,264.283630 
	C192.043472,253.864609 188.775665,249.876709 178.570114,247.829361 
	C175.633652,247.240280 172.667786,246.768509 169.767303,246.037094 
	C166.398315,245.187561 164.179596,243.250946 164.134949,239.419785 
	C164.088654,235.446716 166.142731,233.084595 169.796936,232.298996 
	C172.533005,231.710770 175.400742,231.454376 178.200302,231.512192 
	C181.803467,231.586624 185.397079,232.122849 189.309311,232.489655 
	C189.309311,229.791763 189.309311,227.550568 189.309311,223.821869 
	C181.347137,224.231995 173.547119,223.984039 165.986694,225.211700 
	C158.872360,226.366943 155.387131,231.682571 155.206802,238.866302 
	C155.012192,246.618927 158.134476,251.330948 165.400925,253.501831 
	C169.051956,254.592590 172.902832,254.998856 176.639206,255.823944 
	C180.308640,256.634277 183.220963,258.238556 183.283401,262.658630 
	C183.348633,267.276855 181.369873,270.592682 176.772720,271.361023 
	C173.055527,271.982269 169.180969,271.896240 165.389023,271.761993 
	C162.325104,271.653473 159.280304,271.005310 155.598526,270.512421 
	C156.550171,273.931610 153.484299,278.210876 158.625900,278.741211 
	C165.035049,279.402344 171.619919,279.803650 177.986725,279.074860 
	C186.403015,278.111481 190.233261,273.676056 192.055237,264.283630 
M217.098480,270.986145 
	C207.087677,273.833893 205.184540,272.419983 205.181946,262.126740 
	C205.179947,254.189774 205.181564,246.252808 205.181564,238.169098 
	C202.049225,238.169098 199.502991,238.169098 196.669220,238.169098 
	C196.669220,248.014771 196.611801,257.484467 196.685455,266.953125 
	C196.758102,276.293427 202.337646,281.189850 211.560730,279.629059 
	C215.761810,278.918152 219.801132,277.251160 223.913818,276.017822 
	C223.799576,276.350006 223.685318,276.682190 223.571060,277.014404 
	C226.289688,277.811279 229.008316,278.608185 232.049561,279.499634 
	C232.049561,264.883148 232.049561,251.486130 232.049561,238.134338 
	C229.298492,238.134338 226.880600,238.134338 224.163589,238.134338 
	C224.163589,246.119995 223.738647,253.796112 224.308182,261.397705 
	C224.709381,266.752380 222.806763,269.531586 217.098480,270.986145 
M271.568237,278.976746 
	C274.675690,279.427704 276.016174,278.415771 275.915039,274.957153 
	C275.676880,266.812012 275.871460,258.655029 275.829132,250.503174 
	C275.774109,239.907349 269.660248,235.003937 259.240295,237.431976 
	C255.577209,238.285538 252.075806,239.832901 248.490494,241.066925 
	C247.129883,235.439987 243.373245,238.312592 240.556702,238.242447 
	C240.556702,251.989182 240.556702,265.364319 240.556702,278.786438 
	C243.277664,278.786438 245.576050,278.786438 248.436661,278.786438 
	C248.436661,270.824005 248.867523,263.009888 248.290039,255.271042 
	C247.883301,249.820160 250.138321,247.298889 254.887024,246.026443 
	C256.171173,245.682343 257.412781,245.156418 258.709930,244.887939 
	C264.935211,243.599396 267.522827,245.621948 267.570251,251.901505 
	C267.629303,259.720398 267.628967,267.540497 267.557922,275.359192 
	C267.537384,277.621704 267.721710,279.422485 271.568237,278.976746 
M479.279266,233.577316 
	C479.279266,248.533310 479.279266,263.489319 479.279266,278.709839 
	C482.419708,278.709839 484.998352,278.709839 487.799622,278.709839 
	C487.799622,260.719482 487.799622,242.981415 487.799622,224.968201 
	C484.942261,224.968201 482.371887,224.968201 479.279510,224.968201 
	C479.279510,227.697220 479.279510,230.153046 479.279266,233.577316 
M366.546814,240.744736 
	C366.891815,238.014511 365.731293,236.922607 363.132568,237.901779 
	C359.143127,239.404968 355.217010,241.076202 351.018402,242.775543 
	C350.739349,241.261658 350.454193,239.714859 350.166290,238.153168 
	C347.589417,238.153168 345.201874,238.153168 342.877502,238.153168 
	C342.877502,251.889572 342.877502,265.259247 342.877502,278.613281 
	C345.624146,278.613281 348.011841,278.613281 350.811737,278.613281 
	C350.811737,272.972656 350.811737,267.688293 350.811737,262.403900 
	C350.811707,250.002991 350.771027,249.848419 362.839569,246.673370 
	C365.989838,245.844589 366.924774,244.413162 366.546814,240.744736 
M334.877380,257.500336 
	C334.877380,251.076584 334.877380,244.652832 334.877380,238.168884 
	C331.822479,238.168884 329.421570,238.168884 326.950134,238.168884 
	C326.950134,251.863800 326.950134,265.249146 326.950134,278.648438 
	C329.641876,278.648438 332.042450,278.648438 334.877350,278.648438 
	C334.877350,271.716064 334.877350,265.108032 334.877380,257.500336 
M36.973450,263.301544 
	C37.655144,264.019714 38.220982,264.930725 39.038883,265.422211 
	C42.321983,267.395111 45.880150,268.599640 49.253838,266.019196 
	C50.197884,265.297119 50.767773,262.174591 50.252514,261.775391 
	C47.523941,259.661438 44.581524,257.214294 41.356522,256.505402 
	C37.376175,255.630508 35.821751,258.175171 36.973450,263.301544 
M57.234924,277.238647 
	C55.662411,272.003540 49.941208,269.380188 45.235188,271.736389 
	C42.170994,273.270569 41.754070,276.034485 44.207600,278.548462 
	C47.884460,282.315918 53.323994,282.041382 57.234924,277.238647 
M65.424049,289.471771 
	C64.808998,288.346558 64.466019,286.850800 63.529625,286.163208 
	C60.276489,283.774414 56.615669,283.610992 53.418713,286.042175 
	C52.370972,286.838959 51.560474,289.554901 52.123848,290.572632 
	C54.101871,294.145935 57.802631,294.379517 61.290150,293.439514 
	C62.809719,293.029938 63.972160,291.295349 65.424049,289.471771 
M72.023575,304.557129 
	C77.271820,302.600983 78.889671,299.889709 75.880455,298.097473 
	C73.658730,296.774261 70.308365,296.838104 67.562157,297.156860 
	C66.483421,297.282043 65.680550,299.784058 64.752052,301.203644 
	C66.923325,302.342346 69.094589,303.481079 72.023575,304.557129 
M33.631161,254.551193 
	C31.490952,252.289200 29.566250,249.717392 27.063557,247.976501 
	C26.413555,247.524353 23.957085,249.669174 22.330368,250.621155 
	C23.864738,252.789734 25.012779,255.475769 27.037577,256.987457 
	C29.247938,258.637695 32.129120,258.697571 33.631161,254.551193 
M37.397831,269.780457 
	C36.149433,268.735718 35.028492,267.085938 33.622417,266.789764 
	C31.574528,266.358398 29.254948,266.662262 27.211685,267.230103 
	C26.801804,267.344025 26.507118,270.910767 27.197895,271.390717 
	C29.489334,272.982849 32.184879,274.200195 34.894798,274.816528 
	C35.467728,274.946808 36.758503,271.920807 37.397831,269.780457 
M327.356506,233.196548 
	C329.763885,233.196548 332.171265,233.196548 334.560486,233.196548 
	C334.560486,229.875793 334.560486,226.998367 334.560486,224.030823 
	C331.798553,224.030823 329.404022,224.030823 326.802277,224.030823 
	C326.802277,227.081161 326.802277,229.838333 327.356506,233.196548 
M45.942257,289.503113 
	C48.500172,285.103210 45.120621,283.417694 42.111095,282.943970 
	C40.068855,282.622528 36.050446,284.122437 35.759151,285.437561 
	C34.909843,289.271973 38.490929,290.169495 41.492905,290.653107 
	C42.704426,290.848267 44.049999,290.211273 45.942257,289.503113 
M61.531120,300.567047 
	C58.908298,297.172363 55.033535,296.118866 52.934357,298.513153 
	C52.291389,299.246552 52.252663,301.377380 52.854919,302.177704 
	C54.952908,304.965729 58.628033,304.442291 61.531120,300.567047 
M14.585664,239.936691 
	C15.544149,241.752960 16.241196,243.819244 17.606251,245.246704 
	C18.069334,245.730957 20.218817,244.602539 21.597673,244.211075 
	C20.974682,242.433044 20.803259,240.150375 19.573734,239.050171 
	C18.720037,238.286240 16.410677,239.149078 14.585664,239.936691 
M20.342562,266.204437 
	C23.706202,265.084320 23.352079,262.635834 21.377920,261.047302 
	C19.937702,259.888458 17.403425,260.089264 15.356875,259.683929 
	C16.035761,261.579590 16.589920,263.536377 17.470940,265.332916 
	C17.729071,265.859283 18.916029,265.930145 20.342562,266.204437 
M25.751440,284.642822 
	C27.560440,284.256592 29.369440,283.870361 31.178436,283.484100 
	C30.663712,282.405670 30.387686,280.680389 29.584391,280.383972 
	C27.930729,279.773804 25.995306,279.927185 24.175831,279.766327 
	C24.511181,281.259491 24.846531,282.752686 25.751440,284.642822 
M41.277451,298.791779 
	C41.883827,299.323425 42.464142,300.265808 43.101681,300.306274 
	C44.718937,300.408905 46.378029,300.184875 47.970753,299.853333 
	C48.139496,299.818207 48.277924,297.602814 47.919426,297.424103 
	C46.420612,296.677063 44.741329,296.047150 43.097153,295.960052 
	C42.459293,295.926239 41.739250,297.443695 41.277451,298.791779 
z"/>
<path fill="#576674" opacity="1.000000" stroke="none" 
	d="
M461.986359,267.567566 
	C455.162567,267.192230 448.674744,266.925812 442.200623,267.118744 
	C440.864685,267.158569 439.484406,268.809143 438.313538,269.917023 
	C437.768250,270.432983 437.664673,271.422577 437.377838,272.203674 
	C434.723663,279.431183 434.724731,279.431580 426.387726,278.607147 
	C426.743988,277.206879 426.979980,275.823761 427.444702,274.522308 
	C432.928680,259.164368 438.590454,243.867569 443.848450,228.433075 
	C445.062714,224.868774 447.043152,224.369568 450.140656,224.584137 
	C453.167725,224.793854 456.098907,223.865891 457.592224,228.276688 
	C463.242462,244.965530 469.363464,261.494995 475.314240,278.100647 
	C467.672424,280.272247 466.701141,279.786438 464.311157,272.940826 
	C463.710175,271.219269 462.991669,269.538696 461.986359,267.567566 
M456.612640,249.969910 
	C454.794250,244.712006 452.975830,239.454102 451.157440,234.196198 
	C450.786804,234.194656 450.416199,234.193115 450.045563,234.191589 
	C447.223724,242.332779 444.401886,250.473953 441.342133,259.301483 
	C446.556244,259.301483 450.842163,259.322418 455.127655,259.288818 
	C456.422913,259.278656 457.716980,259.117310 459.566193,258.985779 
	C458.598511,255.990372 457.746948,253.354340 456.612640,249.969910 
z"/>
<path fill="#576674" opacity="1.000000" stroke="none" 
	d="
M302.556763,279.725891 
	C283.313141,280.366760 283.201569,280.260590 283.201447,261.793549 
	C283.201355,250.158920 283.200989,238.524307 283.200745,226.889679 
	C283.200714,225.276398 283.200745,223.663116 283.200745,221.747849 
	C286.163055,221.747849 288.555878,221.747849 291.481598,221.747849 
	C291.481598,227.845963 291.481598,233.756195 291.481598,240.239807 
	C294.746857,239.183258 297.333344,238.189102 300.000244,237.511627 
	C309.674408,235.054047 317.344452,238.907242 319.486755,248.537506 
	C320.740997,254.175888 320.689606,260.500000 319.554413,266.181702 
	C317.864075,274.641815 311.357086,278.641388 302.556763,279.725891 
M300.265076,244.664749 
	C297.308350,246.477280 292.236420,247.888214 291.801361,250.179565 
	C290.613922,256.433533 291.312653,263.060638 291.461578,269.535370 
	C291.481171,270.387482 292.476349,271.639709 293.316467,271.985504 
	C302.400116,275.723999 311.321136,270.368561 312.139099,260.657867 
	C312.359894,258.036652 312.275269,255.315857 311.829590,252.727066 
	C310.745636,246.430908 307.641266,244.188141 300.265076,244.664749 
z"/>
<path fill="#566673" opacity="1.000000" stroke="none" 
	d="
M396.617249,230.125427 
	C396.617279,227.177109 396.617279,224.710495 396.617279,221.848236 
	C399.401794,221.848236 401.784851,221.848236 404.557739,221.848236 
	C404.557739,240.671204 404.557739,259.505829 404.557739,279.493896 
	C401.980438,278.742645 399.708832,277.998627 397.391876,277.444000 
	C396.415649,277.210327 395.294250,277.169067 394.324738,277.400299 
	C391.587921,278.053101 388.940186,279.198730 386.177368,279.600769 
	C377.775696,280.823395 370.807343,276.948029 369.140106,268.703522 
	C367.897339,262.557861 367.919952,255.784760 369.090698,249.615936 
	C370.579376,241.772034 377.175201,237.478622 385.635834,237.043030 
	C388.942596,236.872757 392.265472,237.015152 396.309906,237.015152 
	C396.403442,235.064331 396.510345,232.835724 396.617249,230.125427 
M396.236969,245.389252 
	C382.671112,241.436752 375.851318,246.216949 376.007690,259.568542 
	C376.147980,271.544464 383.058868,275.685272 393.784821,269.997070 
	C395.171448,269.261719 396.580170,267.132751 396.646179,265.592285 
	C396.923065,259.129578 396.693024,252.645142 396.236969,245.389252 
z"/>
<path fill="#576674" opacity="1.000000" stroke="none" 
	d="
M192.027405,264.716370 
	C190.233261,273.676056 186.403015,278.111481 177.986725,279.074860 
	C171.619919,279.803650 165.035049,279.402344 158.625900,278.741211 
	C153.484299,278.210876 156.550171,273.931610 155.598526,270.512421 
	C159.280304,271.005310 162.325104,271.653473 165.389023,271.761993 
	C169.180969,271.896240 173.055527,271.982269 176.772720,271.361023 
	C181.369873,270.592682 183.348633,267.276855 183.283401,262.658630 
	C183.220963,258.238556 180.308640,256.634277 176.639206,255.823944 
	C172.902832,254.998856 169.051956,254.592590 165.400925,253.501831 
	C158.134476,251.330948 155.012192,246.618927 155.206802,238.866302 
	C155.387131,231.682571 158.872360,226.366943 165.986694,225.211700 
	C173.547119,223.984039 181.347137,224.231995 189.309311,223.821869 
	C189.309311,227.550568 189.309311,229.791763 189.309311,232.489655 
	C185.397079,232.122849 181.803467,231.586624 178.200302,231.512192 
	C175.400742,231.454376 172.533005,231.710770 169.796936,232.298996 
	C166.142731,233.084595 164.088654,235.446716 164.134949,239.419785 
	C164.179596,243.250946 166.398315,245.187561 169.767303,246.037094 
	C172.667786,246.768509 175.633652,247.240280 178.570114,247.829361 
	C188.775665,249.876709 192.043472,253.864609 192.027405,264.716370 
z"/>
<path fill="#566673" opacity="1.000000" stroke="none" 
	d="
M217.483078,270.847473 
	C222.806763,269.531586 224.709381,266.752380 224.308182,261.397705 
	C223.738647,253.796112 224.163589,246.119995 224.163589,238.134338 
	C226.880600,238.134338 229.298492,238.134338 232.049561,238.134338 
	C232.049561,251.486130 232.049561,264.883148 232.049561,279.499634 
	C229.008316,278.608185 226.289688,277.811279 223.571060,277.014404 
	C223.685318,276.682190 223.799576,276.350006 223.913818,276.017822 
	C219.801132,277.251160 215.761810,278.918152 211.560730,279.629059 
	C202.337646,281.189850 196.758102,276.293427 196.685455,266.953125 
	C196.611801,257.484467 196.669220,248.014771 196.669220,238.169098 
	C199.502991,238.169098 202.049225,238.169098 205.181564,238.169098 
	C205.181564,246.252808 205.179947,254.189774 205.181946,262.126740 
	C205.184540,272.419983 207.087677,273.833893 217.483078,270.847473 
z"/>
<path fill="#566673" opacity="1.000000" stroke="none" 
	d="
M271.125519,278.976990 
	C267.721710,279.422485 267.537384,277.621704 267.557922,275.359192 
	C267.628967,267.540497 267.629303,259.720398 267.570251,251.901505 
	C267.522827,245.621948 264.935211,243.599396 258.709930,244.887939 
	C257.412781,245.156418 256.171173,245.682343 254.887024,246.026443 
	C250.138321,247.298889 247.883301,249.820160 248.290039,255.271042 
	C248.867523,263.009888 248.436661,270.824005 248.436661,278.786438 
	C245.576050,278.786438 243.277664,278.786438 240.556702,278.786438 
	C240.556702,265.364319 240.556702,251.989182 240.556702,238.242447 
	C243.373245,238.312592 247.129883,235.439987 248.490494,241.066925 
	C252.075806,239.832901 255.577209,238.285538 259.240295,237.431976 
	C269.660248,235.003937 275.774109,239.907349 275.829132,250.503174 
	C275.871460,258.655029 275.676880,266.812012 275.915039,274.957153 
	C276.016174,278.415771 274.675690,279.427704 271.125519,278.976990 
z"/>
<path fill="#FAD71C" opacity="1.000000" stroke="none" 
	d="
M124.725433,259.917694 
	C122.238045,266.261047 119.750656,272.604401 116.568878,279.006897 
	C114.645790,277.844666 112.936508,276.839905 112.271545,275.364502 
	C109.385307,268.960419 106.878082,262.386688 104.077065,255.942474 
	C102.844955,253.107803 101.240257,250.435074 99.997269,247.428391 
	C103.239929,242.467102 106.290047,237.766251 109.565872,232.918610 
	C110.203491,232.259430 110.615395,231.747025 111.023636,231.580704 
	C111.002815,233.361710 110.376564,235.327698 111.079910,236.134445 
	C113.418694,238.816940 115.952141,241.539246 118.940353,243.392853 
	C122.665459,245.703552 125.356407,248.284592 125.563522,252.849228 
	C125.448807,254.323318 125.334091,255.797424 124.897430,257.755798 
	C124.625481,258.799255 124.675461,259.358490 124.725433,259.917694 
z"/>
<path fill="#FB871B" opacity="1.000000" stroke="none" 
	d="
M79.383507,231.093964 
	C76.226166,227.326508 73.068817,223.559052 70.115829,219.332748 
	C72.061653,216.882858 73.803116,214.891800 75.785995,213.188568 
	C80.119942,215.865967 82.103989,214.168457 83.264069,209.981659 
	C87.387535,210.570984 91.123863,210.878601 94.695686,211.814194 
	C99.942490,213.188538 104.552017,213.461411 107.205338,207.559326 
	C108.341118,208.564026 109.476898,209.568726 110.773560,211.256836 
	C111.324341,214.262634 111.714249,216.585037 111.757469,218.978088 
	C108.915024,221.334610 106.773933,224.805099 103.855408,225.678894 
	C95.873192,228.068695 87.563515,229.364777 79.383507,231.093964 
z"/>
<path fill="#FCB41B" opacity="1.000000" stroke="none" 
	d="
M99.804726,247.688812 
	C101.240257,250.435074 102.844955,253.107803 104.077065,255.942474 
	C106.878082,262.386688 109.385307,268.960419 112.271545,275.364502 
	C112.936508,276.839905 114.645790,277.844666 116.281601,279.140137 
	C112.335258,284.055511 107.981804,288.896790 103.271469,293.474396 
	C98.120621,285.167938 94.728386,276.641113 93.173302,267.334076 
	C92.464981,263.094818 90.844444,259.007965 89.864738,254.582840 
	C93.329445,252.105392 96.567085,249.897110 99.804726,247.688812 
z"/>
<path fill="#576674" opacity="1.000000" stroke="none" 
	d="
M479.279388,233.093094 
	C479.279510,230.153046 479.279510,227.697220 479.279510,224.968201 
	C482.371887,224.968201 484.942261,224.968201 487.799622,224.968201 
	C487.799622,242.981415 487.799622,260.719482 487.799622,278.709839 
	C484.998352,278.709839 482.419708,278.709839 479.279266,278.709839 
	C479.279266,263.489319 479.279266,248.533310 479.279388,233.093094 
z"/>
<path fill="#566673" opacity="1.000000" stroke="none" 
	d="
M366.545258,241.137436 
	C366.924774,244.413162 365.989838,245.844589 362.839569,246.673370 
	C350.771027,249.848419 350.811707,250.002991 350.811737,262.403900 
	C350.811737,267.688293 350.811737,272.972656 350.811737,278.613281 
	C348.011841,278.613281 345.624146,278.613281 342.877502,278.613281 
	C342.877502,265.259247 342.877502,251.889572 342.877502,238.153168 
	C345.201874,238.153168 347.589417,238.153168 350.166290,238.153168 
	C350.454193,239.714859 350.739349,241.261658 351.018402,242.775543 
	C355.217010,241.076202 359.143127,239.404968 363.132568,237.901779 
	C365.731293,236.922607 366.891815,238.014511 366.545258,241.137436 
z"/>
<path fill="#FD9A2B" opacity="1.000000" stroke="none" 
	d="
M75.544571,212.900757 
	C73.803116,214.891800 72.061653,216.882858 69.948898,219.035126 
	C68.454956,218.715561 67.332291,218.234772 66.091278,217.086792 
	C69.887321,211.612823 68.790596,206.467682 67.014717,201.267151 
	C66.913391,200.970459 66.996666,200.610718 66.994034,200.280319 
	C68.972824,199.465836 70.951607,198.651352 73.512146,197.858093 
	C74.389450,197.835526 74.642448,197.707642 74.852898,197.495667 
	C87.067451,195.525803 97.659676,199.046021 107.076515,207.269531 
	C104.552017,213.461411 99.942490,213.188538 94.695686,211.814194 
	C91.123863,210.878601 87.387535,210.570984 83.055893,209.719482 
	C80.745461,208.803543 79.103920,208.150681 77.462372,207.497818 
	C76.823105,209.298798 76.183838,211.099777 75.544571,212.900757 
z"/>
<path fill="#FD9A2B" opacity="1.000000" stroke="none" 
	d="
M93.178680,299.607758 
	C91.644707,300.172272 90.153526,300.974030 88.569267,301.259796 
	C82.094383,302.427856 79.518875,299.740051 80.964455,293.235168 
	C79.157509,293.016754 77.370926,292.800842 75.281586,291.919556 
	C75.236763,288.968475 75.690720,286.684448 75.711044,284.396576 
	C75.751045,279.892029 75.830101,275.355927 75.360680,270.888824 
	C74.985191,267.315582 73.821716,263.825134 73.007980,260.297943 
	C74.166641,259.740082 75.325302,259.182251 77.038406,258.668762 
	C79.063599,258.496063 80.534325,258.278931 82.048126,258.434906 
	C85.787018,272.407898 89.482849,286.007843 93.178680,299.607758 
z"/>
<path fill="#F1580C" opacity="1.000000" stroke="none" 
	d="
M79.441895,231.507935 
	C87.563515,229.364777 95.873192,228.068695 103.855408,225.678894 
	C106.773933,224.805099 108.915024,221.334610 111.886688,219.351364 
	C111.917488,223.514206 111.472389,227.374420 111.027290,231.234634 
	C110.615395,231.747025 110.203491,232.259430 109.186020,232.918671 
	C104.184135,236.397537 100.076355,240.247452 95.304756,242.905914 
	C91.111580,245.242096 86.175003,246.243988 81.566757,247.835175 
	C80.877930,242.530746 80.189102,237.226334 79.441895,231.507935 
z"/>
<path fill="#FC8E31" opacity="1.000000" stroke="none" 
	d="
M72.576477,260.251892 
	C73.821716,263.825134 74.985191,267.315582 75.360680,270.888824 
	C75.830101,275.355927 75.751045,279.892029 75.711044,284.396576 
	C75.690720,286.684448 75.236763,288.968475 74.962982,291.702393 
	C69.848923,291.506500 68.495071,288.770874 70.726761,284.262604 
	C60.275509,280.060120 59.965302,279.629913 62.749138,272.827332 
	C61.127293,272.180511 59.158604,271.903351 57.965431,270.792877 
	C56.420990,269.355499 54.200493,266.841125 54.615749,265.537048 
	C55.194714,263.718842 57.764896,261.794403 59.801769,261.337799 
	C63.799854,260.441589 68.017937,260.526794 72.576477,260.251892 
z"/>
<path fill="#FEA621" opacity="1.000000" stroke="none" 
	d="
M93.543922,299.507629 
	C89.482849,286.007843 85.787018,272.407898 82.360489,258.270020 
	C84.965752,256.772034 87.301712,255.812027 89.637672,254.852005 
	C90.844444,259.007965 92.464981,263.094818 93.173302,267.334076 
	C94.728386,276.641113 98.120621,285.167938 102.948418,293.561218 
	C99.957886,295.743622 96.933525,297.575562 93.543922,299.507629 
z"/>
<path fill="#566673" opacity="1.000000" stroke="none" 
	d="
M334.877380,258.000183 
	C334.877350,265.108032 334.877350,271.716064 334.877350,278.648438 
	C332.042450,278.648438 329.641876,278.648438 326.950134,278.648438 
	C326.950134,265.249146 326.950134,251.863800 326.950134,238.168884 
	C329.421570,238.168884 331.822479,238.168884 334.877380,238.168884 
	C334.877380,244.652832 334.877380,251.076584 334.877380,258.000183 
z"/>
<path fill="#F7E436" opacity="1.000000" stroke="none" 
	d="
M111.023636,231.580704 
	C111.472389,227.374420 111.917488,223.514206 112.233368,219.280701 
	C111.714249,216.585037 111.324341,214.262634 110.916275,211.549774 
	C119.850189,219.074905 123.460960,229.667053 125.490959,240.928268 
	C126.159081,244.634583 125.914299,248.505493 125.825241,252.575180 
	C125.356407,248.284592 122.665459,245.703552 118.940353,243.392853 
	C115.952141,241.539246 113.418694,238.816940 111.079910,236.134445 
	C110.376564,235.327698 111.002815,233.361710 111.023636,231.580704 
z"/>
<path fill="#EA330B" opacity="1.000000" stroke="none" 
	d="
M89.864738,254.582840 
	C87.301712,255.812027 84.965752,256.772034 82.317429,257.896942 
	C80.534325,258.278931 79.063599,258.496063 77.329208,258.534882 
	C78.434341,255.029495 79.803139,251.702393 81.369339,248.105225 
	C86.175003,246.243988 91.111580,245.242096 95.304756,242.905914 
	C100.076355,240.247452 104.184135,236.397537 108.960312,233.065460 
	C106.290047,237.766251 103.239929,242.467102 99.997269,247.428375 
	C96.567085,249.897110 93.329445,252.105392 89.864738,254.582840 
z"/>
<path fill="#FEA621" opacity="1.000000" stroke="none" 
	d="
M66.665230,200.301636 
	C66.996666,200.610718 66.913391,200.970459 67.014717,201.267151 
	C68.790596,206.467682 69.887321,211.612823 65.947617,216.813629 
	C63.193104,216.298920 60.463894,215.390152 57.217258,214.051102 
	C55.463913,211.864761 54.227989,210.108704 52.992069,208.352646 
	C57.007015,208.594086 59.547073,206.195450 62.052418,203.517212 
	C63.250046,202.236954 64.894409,201.374573 66.665230,200.301636 
z"/>
<path fill="#F87E3F" opacity="1.000000" stroke="none" 
	d="
M36.783844,262.975952 
	C35.821751,258.175171 37.376175,255.630508 41.356522,256.505402 
	C44.581524,257.214294 47.523941,259.661438 50.252514,261.775391 
	C50.767773,262.174591 50.197884,265.297119 49.253838,266.019196 
	C45.880150,268.599640 42.321983,267.395111 39.038883,265.422211 
	C38.220982,264.930725 37.655144,264.019714 36.783844,262.975952 
z"/>
<path fill="#FC8E31" opacity="1.000000" stroke="none" 
	d="
M57.155426,277.568848 
	C53.323994,282.041382 47.884460,282.315918 44.207600,278.548462 
	C41.754070,276.034485 42.170994,273.270569 45.235188,271.736389 
	C49.941208,269.380188 55.662411,272.003540 57.155426,277.568848 
z"/>
<path fill="#FD9A2B" opacity="1.000000" stroke="none" 
	d="
M65.360420,289.817139 
	C63.972160,291.295349 62.809719,293.029938 61.290150,293.439514 
	C57.802631,294.379517 54.101871,294.145935 52.123848,290.572632 
	C51.560474,289.554901 52.370972,286.838959 53.418713,286.042175 
	C56.615669,283.610992 60.276489,283.774414 63.529625,286.163208 
	C64.466019,286.850800 64.808998,288.346558 65.360420,289.817139 
z"/>
<path fill="#FD9A2B" opacity="1.000000" stroke="none" 
	d="
M71.644714,304.588440 
	C69.094589,303.481079 66.923325,302.342346 64.752045,301.203644 
	C65.680550,299.784058 66.483421,297.282043 67.562157,297.156860 
	C70.308365,296.838104 73.658730,296.774261 75.880455,298.097473 
	C78.889671,299.889709 77.271820,302.600983 71.644714,304.588440 
z"/>
<path fill="#F87E3F" opacity="1.000000" stroke="none" 
	d="
M33.588417,254.911591 
	C32.129120,258.697571 29.247938,258.637695 27.037577,256.987457 
	C25.012779,255.475769 23.864738,252.789734 22.330364,250.621155 
	C23.957085,249.669174 26.413555,247.524353 27.063557,247.976501 
	C29.566250,249.717392 31.490952,252.289200 33.588417,254.911591 
z"/>
<path fill="#F7E436" opacity="1.000000" stroke="none" 
	d="
M52.607800,208.288483 
	C54.227989,210.108704 55.463913,211.864761 56.850296,213.865265 
	C50.191177,214.959442 43.381592,215.809174 35.768490,216.759171 
	C40.449139,211.519730 46.035336,209.326111 52.607800,208.288483 
z"/>
<path fill="#F87E3F" opacity="1.000000" stroke="none" 
	d="
M37.558178,270.064758 
	C36.758503,271.920807 35.467728,274.946808 34.894798,274.816528 
	C32.184879,274.200195 29.489334,272.982849 27.197895,271.390717 
	C26.507118,270.910767 26.801804,267.344025 27.211685,267.230103 
	C29.254948,266.662262 31.574528,266.358398 33.622417,266.789764 
	C35.028492,267.085938 36.149433,268.735718 37.558178,270.064758 
z"/>
<path fill="#576674" opacity="1.000000" stroke="none" 
	d="
M327.079407,232.896027 
	C326.802277,229.838333 326.802277,227.081161 326.802277,224.030823 
	C329.404022,224.030823 331.798553,224.030823 334.560486,224.030823 
	C334.560486,226.998367 334.560486,229.875793 334.560486,233.196548 
	C332.171265,233.196548 329.763885,233.196548 327.079407,232.896027 
z"/>
<path fill="#FC8E31" opacity="1.000000" stroke="none" 
	d="
M45.638412,289.728027 
	C44.049999,290.211273 42.704426,290.848267 41.492905,290.653107 
	C38.490929,290.169495 34.909843,289.271973 35.759151,285.437561 
	C36.050446,284.122437 40.068855,282.622528 42.111095,282.943970 
	C45.120621,283.417694 48.500172,285.103210 45.638412,289.728027 
z"/>
<path fill="#FD9A2B" opacity="1.000000" stroke="none" 
	d="
M61.513802,300.902100 
	C58.628033,304.442291 54.952908,304.965729 52.854919,302.177704 
	C52.252663,301.377380 52.291389,299.246552 52.934357,298.513153 
	C55.033535,296.118866 58.908298,297.172363 61.513802,300.902100 
z"/>
<path fill="#F87E3F" opacity="1.000000" stroke="none" 
	d="
M14.668667,239.610901 
	C16.410677,239.149078 18.720037,238.286240 19.573734,239.050171 
	C20.803259,240.150375 20.974682,242.433044 21.597670,244.211060 
	C20.218817,244.602539 18.069334,245.730957 17.606251,245.246704 
	C16.241196,243.819244 15.544149,241.752960 14.668667,239.610901 
z"/>
<path fill="#F87E3F" opacity="1.000000" stroke="none" 
	d="
M20.009920,266.207092 
	C18.916029,265.930145 17.729071,265.859283 17.470940,265.332916 
	C16.589920,263.536377 16.035761,261.579590 15.356873,259.683929 
	C17.403425,260.089264 19.937702,259.888458 21.377920,261.047302 
	C23.352079,262.635834 23.706202,265.084320 20.009920,266.207092 
z"/>
<path fill="#F87E3F" opacity="1.000000" stroke="none" 
	d="
M25.466660,284.444336 
	C24.846531,282.752686 24.511181,281.259491 24.175831,279.766327 
	C25.995306,279.927185 27.930729,279.773804 29.584391,280.383972 
	C30.387686,280.680389 30.663712,282.405670 31.178438,283.484131 
	C29.369440,283.870361 27.560440,284.256592 25.466660,284.444336 
z"/>
<path fill="#FC8E31" opacity="1.000000" stroke="none" 
	d="
M41.167046,298.523132 
	C41.739250,297.443695 42.459293,295.926239 43.097153,295.960052 
	C44.741329,296.047150 46.420612,296.677063 47.919426,297.424103 
	C48.277924,297.602814 48.139496,299.818207 47.970753,299.853333 
	C46.378029,300.184875 44.718937,300.408905 43.101681,300.306274 
	C42.464142,300.265808 41.883827,299.323425 41.167046,298.523132 
z"/>
<path fill="#F7E436" opacity="1.000000" stroke="none" 
	d="
M124.908020,259.783997 
	C124.675461,259.358490 124.625481,258.799255 124.796616,258.117798 
	C125.042015,258.547089 125.066307,259.098694 124.908020,259.783997 
z"/>
<path fill="#FEA621" opacity="1.000000" stroke="none" 
	d="
M74.630569,197.453064 
	C74.642448,197.707642 74.389450,197.835526 73.875114,197.886581 
	C73.841911,197.631393 74.092552,197.470261 74.630569,197.453064 
z"/>
<path fill="#F7F7F8" opacity="1.000000" stroke="none" 
	d="
M456.754028,250.344116 
	C457.746948,253.354340 458.598511,255.990372 459.566193,258.985779 
	C457.716980,259.117310 456.422913,259.278656 455.127655,259.288818 
	C450.842163,259.322418 446.556244,259.301483 441.342133,259.301483 
	C444.401886,250.473953 447.223724,242.332779 450.045563,234.191589 
	C450.416199,234.193115 450.786804,234.194656 451.157440,234.196198 
	C452.975830,239.454102 454.794250,244.712006 456.754028,250.344116 
z"/>
<path fill="#F7F7F8" opacity="1.000000" stroke="none" 
	d="
M300.646271,244.575531 
	C307.641266,244.188141 310.745636,246.430908 311.829590,252.727066 
	C312.275269,255.315857 312.359894,258.036652 312.139099,260.657867 
	C311.321136,270.368561 302.400116,275.723999 293.316467,271.985504 
	C292.476349,271.639709 291.481171,270.387482 291.461578,269.535370 
	C291.312653,263.060638 290.613922,256.433533 291.801361,250.179565 
	C292.236420,247.888214 297.308350,246.477280 300.646271,244.575531 
z"/>
<path fill="#F7F7F8" opacity="1.000000" stroke="none" 
	d="
M396.442810,245.778961 
	C396.693024,252.645142 396.923065,259.129578 396.646179,265.592285 
	C396.580170,267.132751 395.171448,269.261719 393.784821,269.997070 
	C383.058868,275.685272 376.147980,271.544464 376.007690,259.568542 
	C375.851318,246.216949 382.671112,241.436752 396.442810,245.778961 
z"/>
<path fill="#F7F7F8" opacity="1.000000" stroke="none" 
	d="
M75.785995,213.188568 
	C76.183838,211.099777 76.823105,209.298798 77.462372,207.497818 
	C79.103920,208.150681 80.745461,208.803543 82.595184,209.718567 
	C82.103989,214.168457 80.119942,215.865967 75.785995,213.188568 
z"/>
</svg>